<mxfile host="app.diagrams.net" modified="2023-10-08T19:47:08.692Z" agent="Mozilla/5.0 (Windows NT 10.0; Win64; x64) AppleWebKit/537.36 (KHTML, like Gecko) Chrome/117.0.0.0 Safari/537.36" etag="Pzg6RkYjGmAIV7754He1" version="22.0.4" type="github">
  <diagram name="Página-1" id="jlo1wy49ycUf86JTQE9i">
    <mxGraphModel dx="880" dy="521" grid="1" gridSize="10" guides="1" tooltips="1" connect="1" arrows="1" fold="1" page="1" pageScale="1" pageWidth="827" pageHeight="1169" math="0" shadow="0">
      <root>
        <mxCell id="0" />
        <mxCell id="1" parent="0" />
        <mxCell id="RQbDG6k7a9iBf144iXeE-6" style="edgeStyle=orthogonalEdgeStyle;rounded=0;orthogonalLoop=1;jettySize=auto;html=1;entryX=0;entryY=0.5;entryDx=0;entryDy=0;" edge="1" parent="1" source="RQbDG6k7a9iBf144iXeE-1" target="RQbDG6k7a9iBf144iXeE-5">
          <mxGeometry relative="1" as="geometry" />
        </mxCell>
        <mxCell id="RQbDG6k7a9iBf144iXeE-1" value="&lt;br&gt;- Código&lt;br&gt;- Nome&lt;br&gt;- Endereço&lt;br&gt;- Comissão" style="whiteSpace=wrap;html=1;aspect=fixed;align=left;" vertex="1" parent="1">
          <mxGeometry x="100" y="75" width="110" height="110" as="geometry" />
        </mxCell>
        <mxCell id="RQbDG6k7a9iBf144iXeE-2" value="Vendedor" style="text;html=1;strokeColor=none;fillColor=none;align=center;verticalAlign=middle;whiteSpace=wrap;rounded=0;" vertex="1" parent="1">
          <mxGeometry x="125" y="70" width="60" height="30" as="geometry" />
        </mxCell>
        <mxCell id="RQbDG6k7a9iBf144iXeE-3" value="- Código&lt;br&gt;- Nome&lt;br&gt;- Endereço&lt;br&gt;- Faturamento Acumulado&lt;br&gt;- Limite de Crédito" style="whiteSpace=wrap;html=1;aspect=fixed;align=left;" vertex="1" parent="1">
          <mxGeometry x="470" y="55" width="150" height="150" as="geometry" />
        </mxCell>
        <mxCell id="RQbDG6k7a9iBf144iXeE-4" value="Cliente" style="text;html=1;strokeColor=none;fillColor=none;align=center;verticalAlign=middle;whiteSpace=wrap;rounded=0;" vertex="1" parent="1">
          <mxGeometry x="515" y="60" width="60" height="30" as="geometry" />
        </mxCell>
        <mxCell id="RQbDG6k7a9iBf144iXeE-7" style="edgeStyle=orthogonalEdgeStyle;rounded=0;orthogonalLoop=1;jettySize=auto;html=1;exitX=1;exitY=0.5;exitDx=0;exitDy=0;entryX=0;entryY=0.5;entryDx=0;entryDy=0;" edge="1" parent="1" source="RQbDG6k7a9iBf144iXeE-5" target="RQbDG6k7a9iBf144iXeE-3">
          <mxGeometry relative="1" as="geometry" />
        </mxCell>
        <mxCell id="RQbDG6k7a9iBf144iXeE-21" style="edgeStyle=orthogonalEdgeStyle;rounded=0;orthogonalLoop=1;jettySize=auto;html=1;exitX=0.5;exitY=1;exitDx=0;exitDy=0;entryX=0.5;entryY=0;entryDx=0;entryDy=0;" edge="1" parent="1" source="RQbDG6k7a9iBf144iXeE-5" target="RQbDG6k7a9iBf144iXeE-19">
          <mxGeometry relative="1" as="geometry" />
        </mxCell>
        <mxCell id="RQbDG6k7a9iBf144iXeE-5" value="Atende" style="rhombus;whiteSpace=wrap;html=1;" vertex="1" parent="1">
          <mxGeometry x="300" y="90" width="80" height="80" as="geometry" />
        </mxCell>
        <mxCell id="RQbDG6k7a9iBf144iXeE-8" value="N" style="text;html=1;strokeColor=none;fillColor=none;align=center;verticalAlign=middle;whiteSpace=wrap;rounded=0;" vertex="1" parent="1">
          <mxGeometry x="420" y="100" width="60" height="30" as="geometry" />
        </mxCell>
        <mxCell id="RQbDG6k7a9iBf144iXeE-9" value="1" style="text;html=1;strokeColor=none;fillColor=none;align=center;verticalAlign=middle;whiteSpace=wrap;rounded=0;" vertex="1" parent="1">
          <mxGeometry x="190" y="100" width="60" height="30" as="geometry" />
        </mxCell>
        <mxCell id="RQbDG6k7a9iBf144iXeE-18" value="- Código&lt;br&gt;- Descrição&lt;br&gt;- Preço&lt;br&gt;- Quantidade em Estoque&lt;br&gt;- Número de Armazéns" style="whiteSpace=wrap;html=1;aspect=fixed;align=left;" vertex="1" parent="1">
          <mxGeometry x="267.5" y="275" width="145" height="145" as="geometry" />
        </mxCell>
        <mxCell id="RQbDG6k7a9iBf144iXeE-19" value="Peça" style="text;html=1;strokeColor=none;fillColor=none;align=center;verticalAlign=middle;whiteSpace=wrap;rounded=0;" vertex="1" parent="1">
          <mxGeometry x="310" y="275" width="60" height="30" as="geometry" />
        </mxCell>
        <mxCell id="RQbDG6k7a9iBf144iXeE-24" style="edgeStyle=orthogonalEdgeStyle;rounded=0;orthogonalLoop=1;jettySize=auto;html=1;" edge="1" parent="1" source="RQbDG6k7a9iBf144iXeE-20" target="RQbDG6k7a9iBf144iXeE-23">
          <mxGeometry relative="1" as="geometry" />
        </mxCell>
        <mxCell id="RQbDG6k7a9iBf144iXeE-20" value="&lt;br&gt;- Código&lt;br&gt;- Endereço" style="whiteSpace=wrap;html=1;aspect=fixed;align=left;" vertex="1" parent="1">
          <mxGeometry x="690" y="307.5" width="80" height="80" as="geometry" />
        </mxCell>
        <mxCell id="RQbDG6k7a9iBf144iXeE-22" value="Armazém" style="text;html=1;strokeColor=none;fillColor=none;align=center;verticalAlign=middle;whiteSpace=wrap;rounded=0;" vertex="1" parent="1">
          <mxGeometry x="700" y="305" width="60" height="30" as="geometry" />
        </mxCell>
        <mxCell id="RQbDG6k7a9iBf144iXeE-25" style="edgeStyle=orthogonalEdgeStyle;rounded=0;orthogonalLoop=1;jettySize=auto;html=1;entryX=1;entryY=0.5;entryDx=0;entryDy=0;" edge="1" parent="1" source="RQbDG6k7a9iBf144iXeE-23" target="RQbDG6k7a9iBf144iXeE-18">
          <mxGeometry relative="1" as="geometry" />
        </mxCell>
        <mxCell id="RQbDG6k7a9iBf144iXeE-23" value="Armazena" style="rhombus;whiteSpace=wrap;html=1;" vertex="1" parent="1">
          <mxGeometry x="515" y="307.5" width="80" height="80" as="geometry" />
        </mxCell>
        <mxCell id="RQbDG6k7a9iBf144iXeE-26" value="N" style="text;html=1;strokeColor=none;fillColor=none;align=center;verticalAlign=middle;whiteSpace=wrap;rounded=0;" vertex="1" parent="1">
          <mxGeometry x="400" y="320" width="60" height="30" as="geometry" />
        </mxCell>
        <mxCell id="RQbDG6k7a9iBf144iXeE-28" value="1" style="text;html=1;strokeColor=none;fillColor=none;align=center;verticalAlign=middle;whiteSpace=wrap;rounded=0;" vertex="1" parent="1">
          <mxGeometry x="650" y="320" width="60" height="30" as="geometry" />
        </mxCell>
      </root>
    </mxGraphModel>
  </diagram>
</mxfile>
